# xmcd CD database file
#
# Track frame offsets:
#	150
#	27872
#	52512
#	78124
#	106243
#	130658
#	153061
#	184339
#	210890
#	238487
#	263324
#	289090
#
# Disc length: 4270 seconds
#
# Revision: 0
# Processed by: cddbd v1.5.2PL0 Copyright (c) Steve Scherf et al.
# Submitted via: CDex 1.51
#
DISCID=8910ac0c
DTITLE=Alex Theory - Water
DYEAR=2007
DGENRE=New Age
TTITLE0=Molecule 1
TTITLE1=Molecule 2
TTITLE2=Molecule 3
TTITLE3=Molecule 4
TTITLE4=Molecule 5
TTITLE5=Molecule 6
TTITLE6=Molecule 7
TTITLE7=Molecule 8
TTITLE8=Molecule 9
TTITLE9=Molecule 10
TTITLE10=Molecule 11
TTITLE11=Molecule 12
EXTD=YEAR: 2007
EXTT0=
EXTT1=
EXTT2=
EXTT3=
EXTT4=
EXTT5=
EXTT6=
EXTT7=
EXTT8=
EXTT9=
EXTT10=
EXTT11=
PLAYORDER=
